<mxfile host="app.diagrams.net" modified="2021-05-13T12:35:42.795Z" agent="5.0 (Macintosh; Intel Mac OS X 10_15_7) AppleWebKit/537.36 (KHTML, like Gecko) Chrome/90.0.4430.93 Safari/537.36" etag="m49fI3yixRSq7oIqRzi6" version="14.6.12" type="github">
  <diagram id="C5RBs43oDa-KdzZeNtuy" name="Page-1">
    <mxGraphModel dx="2075" dy="714" grid="1" gridSize="10" guides="1" tooltips="1" connect="1" arrows="1" fold="1" page="1" pageScale="1" pageWidth="827" pageHeight="1169" math="0" shadow="0">
      <root>
        <mxCell id="WIyWlLk6GJQsqaUBKTNV-0" />
        <mxCell id="WIyWlLk6GJQsqaUBKTNV-1" parent="WIyWlLk6GJQsqaUBKTNV-0" />
        <mxCell id="xMfNHaJi8qfaiqYtk1ZG-2" value="" style="edgeStyle=orthogonalEdgeStyle;rounded=0;orthogonalLoop=1;jettySize=auto;html=1;" parent="WIyWlLk6GJQsqaUBKTNV-1" source="xMfNHaJi8qfaiqYtk1ZG-0" target="xMfNHaJi8qfaiqYtk1ZG-1" edge="1">
          <mxGeometry relative="1" as="geometry" />
        </mxCell>
        <mxCell id="xMfNHaJi8qfaiqYtk1ZG-0" value="사용자" style="shape=umlActor;verticalLabelPosition=bottom;verticalAlign=top;html=1;outlineConnect=0;" parent="WIyWlLk6GJQsqaUBKTNV-1" vertex="1">
          <mxGeometry x="220" y="20" width="30" height="60" as="geometry" />
        </mxCell>
        <mxCell id="xMfNHaJi8qfaiqYtk1ZG-4" value="" style="edgeStyle=orthogonalEdgeStyle;rounded=0;orthogonalLoop=1;jettySize=auto;html=1;" parent="WIyWlLk6GJQsqaUBKTNV-1" source="xMfNHaJi8qfaiqYtk1ZG-1" target="xMfNHaJi8qfaiqYtk1ZG-3" edge="1">
          <mxGeometry relative="1" as="geometry" />
        </mxCell>
        <mxCell id="xMfNHaJi8qfaiqYtk1ZG-1" value="신분증 OCR 촬영" style="whiteSpace=wrap;html=1;verticalAlign=middle;" parent="WIyWlLk6GJQsqaUBKTNV-1" vertex="1">
          <mxGeometry x="175" y="150" width="120" height="40" as="geometry" />
        </mxCell>
        <mxCell id="xMfNHaJi8qfaiqYtk1ZG-6" value="" style="edgeStyle=orthogonalEdgeStyle;rounded=0;orthogonalLoop=1;jettySize=auto;html=1;entryX=0.5;entryY=0;entryDx=0;entryDy=0;" parent="WIyWlLk6GJQsqaUBKTNV-1" source="xMfNHaJi8qfaiqYtk1ZG-3" edge="1">
          <mxGeometry relative="1" as="geometry">
            <mxPoint x="235" y="470" as="targetPoint" />
          </mxGeometry>
        </mxCell>
        <mxCell id="xMfNHaJi8qfaiqYtk1ZG-11" value="일치&amp;nbsp;" style="edgeLabel;html=1;align=center;verticalAlign=middle;resizable=0;points=[];" parent="xMfNHaJi8qfaiqYtk1ZG-6" vertex="1" connectable="0">
          <mxGeometry x="0.24" relative="1" as="geometry">
            <mxPoint y="-17" as="offset" />
          </mxGeometry>
        </mxCell>
        <mxCell id="xMfNHaJi8qfaiqYtk1ZG-13" value="" style="edgeStyle=orthogonalEdgeStyle;rounded=0;orthogonalLoop=1;jettySize=auto;html=1;" parent="WIyWlLk6GJQsqaUBKTNV-1" source="xMfNHaJi8qfaiqYtk1ZG-3" target="xMfNHaJi8qfaiqYtk1ZG-12" edge="1">
          <mxGeometry relative="1" as="geometry" />
        </mxCell>
        <mxCell id="xMfNHaJi8qfaiqYtk1ZG-14" value="불일치" style="edgeLabel;html=1;align=center;verticalAlign=middle;resizable=0;points=[];" parent="xMfNHaJi8qfaiqYtk1ZG-13" vertex="1" connectable="0">
          <mxGeometry x="0.2485" y="2" relative="1" as="geometry">
            <mxPoint x="-22" y="2" as="offset" />
          </mxGeometry>
        </mxCell>
        <mxCell id="xMfNHaJi8qfaiqYtk1ZG-3" value="데이터 형식 및&amp;nbsp;&lt;br&gt;토스코어 정보와 &lt;br&gt;비교하여 검증&lt;br&gt;&lt;b&gt;(생년월일, 이름)&lt;/b&gt;" style="rhombus;whiteSpace=wrap;html=1;verticalAlign=middle;fillColor=#ffe6cc;strokeColor=#d79b00;" parent="WIyWlLk6GJQsqaUBKTNV-1" vertex="1">
          <mxGeometry x="172.5" y="245" width="125" height="125" as="geometry" />
        </mxCell>
        <mxCell id="xMfNHaJi8qfaiqYtk1ZG-16" value="" style="edgeStyle=orthogonalEdgeStyle;rounded=0;orthogonalLoop=1;jettySize=auto;html=1;exitX=0.5;exitY=1;exitDx=0;exitDy=0;" parent="WIyWlLk6GJQsqaUBKTNV-1" target="xMfNHaJi8qfaiqYtk1ZG-15" edge="1">
          <mxGeometry relative="1" as="geometry">
            <mxPoint x="235" y="530" as="sourcePoint" />
          </mxGeometry>
        </mxCell>
        <mxCell id="xMfNHaJi8qfaiqYtk1ZG-17" value="Y" style="edgeLabel;html=1;align=center;verticalAlign=middle;resizable=0;points=[];" parent="xMfNHaJi8qfaiqYtk1ZG-16" vertex="1" connectable="0">
          <mxGeometry x="-0.15" relative="1" as="geometry">
            <mxPoint as="offset" />
          </mxGeometry>
        </mxCell>
        <mxCell id="xMfNHaJi8qfaiqYtk1ZG-12" value="재촬영 안내" style="whiteSpace=wrap;html=1;fillColor=#f8cecc;strokeColor=#b85450;" parent="WIyWlLk6GJQsqaUBKTNV-1" vertex="1">
          <mxGeometry x="370" y="288.13" width="95.38" height="38.75" as="geometry" />
        </mxCell>
        <mxCell id="xMfNHaJi8qfaiqYtk1ZG-19" value="" style="edgeStyle=orthogonalEdgeStyle;rounded=0;orthogonalLoop=1;jettySize=auto;html=1;" parent="WIyWlLk6GJQsqaUBKTNV-1" source="xMfNHaJi8qfaiqYtk1ZG-15" target="xMfNHaJi8qfaiqYtk1ZG-18" edge="1">
          <mxGeometry relative="1" as="geometry" />
        </mxCell>
        <mxCell id="xMfNHaJi8qfaiqYtk1ZG-20" value="모름 / KCB 점검" style="edgeLabel;html=1;align=center;verticalAlign=middle;resizable=0;points=[];" parent="xMfNHaJi8qfaiqYtk1ZG-19" vertex="1" connectable="0">
          <mxGeometry x="-0.1529" relative="1" as="geometry">
            <mxPoint as="offset" />
          </mxGeometry>
        </mxCell>
        <mxCell id="xMfNHaJi8qfaiqYtk1ZG-24" value="" style="edgeStyle=orthogonalEdgeStyle;rounded=0;orthogonalLoop=1;jettySize=auto;html=1;" parent="WIyWlLk6GJQsqaUBKTNV-1" source="xMfNHaJi8qfaiqYtk1ZG-15" target="xMfNHaJi8qfaiqYtk1ZG-23" edge="1">
          <mxGeometry relative="1" as="geometry" />
        </mxCell>
        <mxCell id="xMfNHaJi8qfaiqYtk1ZG-26" value="일치" style="edgeLabel;html=1;align=center;verticalAlign=middle;resizable=0;points=[];" parent="xMfNHaJi8qfaiqYtk1ZG-24" vertex="1" connectable="0">
          <mxGeometry x="-0.3333" y="2" relative="1" as="geometry">
            <mxPoint as="offset" />
          </mxGeometry>
        </mxCell>
        <mxCell id="xMfNHaJi8qfaiqYtk1ZG-28" value="" style="edgeStyle=orthogonalEdgeStyle;rounded=0;orthogonalLoop=1;jettySize=auto;html=1;entryX=0.5;entryY=1;entryDx=0;entryDy=0;" parent="WIyWlLk6GJQsqaUBKTNV-1" source="xMfNHaJi8qfaiqYtk1ZG-15" target="xMfNHaJi8qfaiqYtk1ZG-12" edge="1">
          <mxGeometry relative="1" as="geometry">
            <mxPoint x="370" y="685" as="targetPoint" />
          </mxGeometry>
        </mxCell>
        <mxCell id="xMfNHaJi8qfaiqYtk1ZG-29" value="불일치" style="edgeLabel;html=1;align=center;verticalAlign=middle;resizable=0;points=[];" parent="xMfNHaJi8qfaiqYtk1ZG-28" vertex="1" connectable="0">
          <mxGeometry x="-0.2235" y="-4" relative="1" as="geometry">
            <mxPoint x="-72" y="67" as="offset" />
          </mxGeometry>
        </mxCell>
        <mxCell id="xMfNHaJi8qfaiqYtk1ZG-15" value="KCB 검증" style="rhombus;whiteSpace=wrap;html=1;fillColor=#ffe6cc;strokeColor=#d79b00;" parent="WIyWlLk6GJQsqaUBKTNV-1" vertex="1">
          <mxGeometry x="170" y="470" width="130" height="130" as="geometry" />
        </mxCell>
        <mxCell id="xMfNHaJi8qfaiqYtk1ZG-22" value="" style="edgeStyle=orthogonalEdgeStyle;rounded=0;orthogonalLoop=1;jettySize=auto;html=1;" parent="WIyWlLk6GJQsqaUBKTNV-1" source="xMfNHaJi8qfaiqYtk1ZG-18" target="xMfNHaJi8qfaiqYtk1ZG-21" edge="1">
          <mxGeometry relative="1" as="geometry" />
        </mxCell>
        <mxCell id="xMfNHaJi8qfaiqYtk1ZG-18" value="스킵" style="whiteSpace=wrap;html=1;fillColor=#f8cecc;strokeColor=#b85450;" parent="WIyWlLk6GJQsqaUBKTNV-1" vertex="1">
          <mxGeometry x="-70" y="517.5" width="100" height="35" as="geometry" />
        </mxCell>
        <mxCell id="xMfNHaJi8qfaiqYtk1ZG-25" style="edgeStyle=orthogonalEdgeStyle;rounded=0;orthogonalLoop=1;jettySize=auto;html=1;entryX=0;entryY=0.5;entryDx=0;entryDy=0;" parent="WIyWlLk6GJQsqaUBKTNV-1" source="xMfNHaJi8qfaiqYtk1ZG-21" target="xMfNHaJi8qfaiqYtk1ZG-23" edge="1">
          <mxGeometry relative="1" as="geometry">
            <Array as="points">
              <mxPoint x="-20" y="725" />
            </Array>
          </mxGeometry>
        </mxCell>
        <mxCell id="xMfNHaJi8qfaiqYtk1ZG-21" value="기록 저장 (캐싱)" style="whiteSpace=wrap;html=1;" parent="WIyWlLk6GJQsqaUBKTNV-1" vertex="1">
          <mxGeometry x="-70" y="632.5" width="100" height="35" as="geometry" />
        </mxCell>
        <mxCell id="xMfNHaJi8qfaiqYtk1ZG-32" style="edgeStyle=orthogonalEdgeStyle;rounded=0;orthogonalLoop=1;jettySize=auto;html=1;entryX=0.75;entryY=1;entryDx=0;entryDy=0;" parent="WIyWlLk6GJQsqaUBKTNV-1" source="xMfNHaJi8qfaiqYtk1ZG-23" target="xMfNHaJi8qfaiqYtk1ZG-12" edge="1">
          <mxGeometry relative="1" as="geometry" />
        </mxCell>
        <mxCell id="xMfNHaJi8qfaiqYtk1ZG-33" value="실패" style="edgeLabel;html=1;align=center;verticalAlign=middle;resizable=0;points=[];" parent="xMfNHaJi8qfaiqYtk1ZG-32" vertex="1" connectable="0">
          <mxGeometry x="-0.8753" relative="1" as="geometry">
            <mxPoint as="offset" />
          </mxGeometry>
        </mxCell>
        <mxCell id="xMfNHaJi8qfaiqYtk1ZG-35" value="" style="edgeStyle=orthogonalEdgeStyle;rounded=0;orthogonalLoop=1;jettySize=auto;html=1;" parent="WIyWlLk6GJQsqaUBKTNV-1" source="xMfNHaJi8qfaiqYtk1ZG-23" target="xMfNHaJi8qfaiqYtk1ZG-34" edge="1">
          <mxGeometry relative="1" as="geometry" />
        </mxCell>
        <mxCell id="xMfNHaJi8qfaiqYtk1ZG-36" style="edgeStyle=orthogonalEdgeStyle;rounded=0;orthogonalLoop=1;jettySize=auto;html=1;entryX=0.5;entryY=0;entryDx=0;entryDy=0;" parent="WIyWlLk6GJQsqaUBKTNV-1" source="xMfNHaJi8qfaiqYtk1ZG-23" target="xMfNHaJi8qfaiqYtk1ZG-37" edge="1">
          <mxGeometry relative="1" as="geometry">
            <mxPoint x="300" y="860" as="targetPoint" />
          </mxGeometry>
        </mxCell>
        <mxCell id="xMfNHaJi8qfaiqYtk1ZG-41" value="성공" style="edgeLabel;html=1;align=center;verticalAlign=middle;resizable=0;points=[];" parent="xMfNHaJi8qfaiqYtk1ZG-36" vertex="1" connectable="0">
          <mxGeometry x="-0.7455" relative="1" as="geometry">
            <mxPoint as="offset" />
          </mxGeometry>
        </mxCell>
        <mxCell id="xMfNHaJi8qfaiqYtk1ZG-23" value="특이점 추출" style="rhombus;whiteSpace=wrap;html=1;" parent="WIyWlLk6GJQsqaUBKTNV-1" vertex="1">
          <mxGeometry x="170" y="660" width="130" height="130" as="geometry" />
        </mxCell>
        <mxCell id="xMfNHaJi8qfaiqYtk1ZG-45" value="" style="edgeStyle=orthogonalEdgeStyle;rounded=0;orthogonalLoop=1;jettySize=auto;html=1;fontColor=#FF0000;" parent="WIyWlLk6GJQsqaUBKTNV-1" source="xMfNHaJi8qfaiqYtk1ZG-34" target="xMfNHaJi8qfaiqYtk1ZG-44" edge="1">
          <mxGeometry relative="1" as="geometry" />
        </mxCell>
        <mxCell id="xMfNHaJi8qfaiqYtk1ZG-34" value="민원24/경찰청 검증 요청" style="whiteSpace=wrap;html=1;fillColor=#ffe6cc;strokeColor=#d79b00;" parent="WIyWlLk6GJQsqaUBKTNV-1" vertex="1">
          <mxGeometry x="90" y="890" width="120" height="30" as="geometry" />
        </mxCell>
        <mxCell id="xMfNHaJi8qfaiqYtk1ZG-47" value="" style="edgeStyle=orthogonalEdgeStyle;rounded=0;orthogonalLoop=1;jettySize=auto;html=1;fontColor=#FF0000;" parent="WIyWlLk6GJQsqaUBKTNV-1" source="xMfNHaJi8qfaiqYtk1ZG-37" target="xMfNHaJi8qfaiqYtk1ZG-46" edge="1">
          <mxGeometry relative="1" as="geometry" />
        </mxCell>
        <mxCell id="xMfNHaJi8qfaiqYtk1ZG-37" value="금결원 검증 요청" style="whiteSpace=wrap;html=1;fillColor=#ffe6cc;strokeColor=#d79b00;" parent="WIyWlLk6GJQsqaUBKTNV-1" vertex="1">
          <mxGeometry x="270" y="890" width="120" height="30" as="geometry" />
        </mxCell>
        <mxCell id="xMfNHaJi8qfaiqYtk1ZG-42" value="병렬로 요청 (먼저 결과 온 것을 사용)" style="text;html=1;strokeColor=none;fillColor=none;align=center;verticalAlign=middle;whiteSpace=wrap;rounded=0;fontStyle=1;fontColor=#FF0000;" parent="WIyWlLk6GJQsqaUBKTNV-1" vertex="1">
          <mxGeometry x="145" y="844" width="190" height="20" as="geometry" />
        </mxCell>
        <mxCell id="xMfNHaJi8qfaiqYtk1ZG-49" value="" style="edgeStyle=orthogonalEdgeStyle;rounded=0;orthogonalLoop=1;jettySize=auto;html=1;fontColor=#FF0000;" parent="WIyWlLk6GJQsqaUBKTNV-1" source="xMfNHaJi8qfaiqYtk1ZG-44" target="xMfNHaJi8qfaiqYtk1ZG-48" edge="1">
          <mxGeometry relative="1" as="geometry" />
        </mxCell>
        <mxCell id="xMfNHaJi8qfaiqYtk1ZG-50" value="&lt;font color=&quot;#000000&quot;&gt;점검&lt;/font&gt;" style="edgeLabel;html=1;align=center;verticalAlign=middle;resizable=0;points=[];fontColor=#FF0000;" parent="xMfNHaJi8qfaiqYtk1ZG-49" vertex="1" connectable="0">
          <mxGeometry x="-0.36" y="-1" relative="1" as="geometry">
            <mxPoint as="offset" />
          </mxGeometry>
        </mxCell>
        <mxCell id="xMfNHaJi8qfaiqYtk1ZG-56" value="" style="edgeStyle=orthogonalEdgeStyle;rounded=0;orthogonalLoop=1;jettySize=auto;html=1;fontColor=#FF0000;" parent="WIyWlLk6GJQsqaUBKTNV-1" source="xMfNHaJi8qfaiqYtk1ZG-44" target="xMfNHaJi8qfaiqYtk1ZG-55" edge="1">
          <mxGeometry relative="1" as="geometry" />
        </mxCell>
        <mxCell id="xMfNHaJi8qfaiqYtk1ZG-57" value="&lt;font color=&quot;#000000&quot;&gt;&lt;span&gt;일치&lt;/span&gt;&lt;/font&gt;" style="edgeLabel;html=1;align=center;verticalAlign=middle;resizable=0;points=[];fontColor=#FF0000;" parent="xMfNHaJi8qfaiqYtk1ZG-56" vertex="1" connectable="0">
          <mxGeometry x="-0.5385" y="1" relative="1" as="geometry">
            <mxPoint as="offset" />
          </mxGeometry>
        </mxCell>
        <mxCell id="xMfNHaJi8qfaiqYtk1ZG-64" value="&lt;font color=&quot;#000000&quot;&gt;불일치&lt;/font&gt;" style="edgeStyle=orthogonalEdgeStyle;rounded=0;orthogonalLoop=1;jettySize=auto;html=1;fontColor=#FF0000;" parent="WIyWlLk6GJQsqaUBKTNV-1" source="xMfNHaJi8qfaiqYtk1ZG-44" target="xMfNHaJi8qfaiqYtk1ZG-65" edge="1">
          <mxGeometry relative="1" as="geometry">
            <mxPoint x="230" y="1080" as="targetPoint" />
            <Array as="points">
              <mxPoint x="240" y="1015" />
            </Array>
          </mxGeometry>
        </mxCell>
        <mxCell id="xMfNHaJi8qfaiqYtk1ZG-44" value="검증 결과" style="rhombus;whiteSpace=wrap;html=1;" parent="WIyWlLk6GJQsqaUBKTNV-1" vertex="1">
          <mxGeometry x="110" y="975" width="80" height="80" as="geometry" />
        </mxCell>
        <mxCell id="xMfNHaJi8qfaiqYtk1ZG-66" style="edgeStyle=orthogonalEdgeStyle;rounded=0;orthogonalLoop=1;jettySize=auto;html=1;fontColor=#FF0000;exitX=0;exitY=0.5;exitDx=0;exitDy=0;entryX=1;entryY=0.5;entryDx=0;entryDy=0;" parent="WIyWlLk6GJQsqaUBKTNV-1" source="xMfNHaJi8qfaiqYtk1ZG-46" target="xMfNHaJi8qfaiqYtk1ZG-71" edge="1">
          <mxGeometry relative="1" as="geometry">
            <mxPoint x="380" y="1006.3199999999999" as="targetPoint" />
            <mxPoint x="390" y="1030" as="sourcePoint" />
          </mxGeometry>
        </mxCell>
        <mxCell id="237TbWZ7jCMliAY4gID8-23" value="일치" style="edgeLabel;html=1;align=center;verticalAlign=middle;resizable=0;points=[];" vertex="1" connectable="0" parent="xMfNHaJi8qfaiqYtk1ZG-66">
          <mxGeometry x="-0.1459" y="-2" relative="1" as="geometry">
            <mxPoint as="offset" />
          </mxGeometry>
        </mxCell>
        <mxCell id="xMfNHaJi8qfaiqYtk1ZG-74" style="edgeStyle=orthogonalEdgeStyle;rounded=0;orthogonalLoop=1;jettySize=auto;html=1;fontColor=#000000;startArrow=none;entryX=0;entryY=0.5;entryDx=0;entryDy=0;" parent="WIyWlLk6GJQsqaUBKTNV-1" source="237TbWZ7jCMliAY4gID8-8" edge="1">
          <mxGeometry relative="1" as="geometry">
            <mxPoint x="855" y="966.2550000000001" as="targetPoint" />
          </mxGeometry>
        </mxCell>
        <mxCell id="237TbWZ7jCMliAY4gID8-31" style="edgeStyle=orthogonalEdgeStyle;rounded=0;orthogonalLoop=1;jettySize=auto;html=1;entryX=0.5;entryY=0;entryDx=0;entryDy=0;" edge="1" parent="WIyWlLk6GJQsqaUBKTNV-1" source="xMfNHaJi8qfaiqYtk1ZG-46" target="237TbWZ7jCMliAY4gID8-20">
          <mxGeometry relative="1" as="geometry" />
        </mxCell>
        <mxCell id="237TbWZ7jCMliAY4gID8-32" value="실패/ 점검중" style="edgeLabel;html=1;align=center;verticalAlign=middle;resizable=0;points=[];" vertex="1" connectable="0" parent="237TbWZ7jCMliAY4gID8-31">
          <mxGeometry x="-0.2128" y="1" relative="1" as="geometry">
            <mxPoint as="offset" />
          </mxGeometry>
        </mxCell>
        <mxCell id="xMfNHaJi8qfaiqYtk1ZG-46" value="&lt;span&gt;검증 결과&lt;/span&gt;" style="rhombus;whiteSpace=wrap;html=1;" parent="WIyWlLk6GJQsqaUBKTNV-1" vertex="1">
          <mxGeometry x="445.38" y="975" width="80" height="80" as="geometry" />
        </mxCell>
        <mxCell id="xMfNHaJi8qfaiqYtk1ZG-48" value="점검 안내 &lt;br&gt;(다른 신분증 요청)" style="whiteSpace=wrap;html=1;" parent="WIyWlLk6GJQsqaUBKTNV-1" vertex="1">
          <mxGeometry x="-110" y="997.5" width="120" height="35" as="geometry" />
        </mxCell>
        <mxCell id="xMfNHaJi8qfaiqYtk1ZG-53" value="민원24 = 주민등록증 검증 불가" style="text;html=1;strokeColor=none;fillColor=none;align=center;verticalAlign=middle;whiteSpace=wrap;rounded=0;fontColor=#FF0000;fontStyle=1" parent="WIyWlLk6GJQsqaUBKTNV-1" vertex="1">
          <mxGeometry x="-130" y="1035" width="160" height="20" as="geometry" />
        </mxCell>
        <mxCell id="xMfNHaJi8qfaiqYtk1ZG-54" value="경찰청 = 운전면허증 검증 불가" style="text;html=1;strokeColor=none;fillColor=none;align=center;verticalAlign=middle;whiteSpace=wrap;rounded=0;fontColor=#FF0000;fontStyle=1" parent="WIyWlLk6GJQsqaUBKTNV-1" vertex="1">
          <mxGeometry x="-130" y="1055" width="160" height="20" as="geometry" />
        </mxCell>
        <mxCell id="xMfNHaJi8qfaiqYtk1ZG-59" value="" style="edgeStyle=orthogonalEdgeStyle;rounded=0;orthogonalLoop=1;jettySize=auto;html=1;fontColor=#FF0000;" parent="WIyWlLk6GJQsqaUBKTNV-1" source="xMfNHaJi8qfaiqYtk1ZG-55" target="xMfNHaJi8qfaiqYtk1ZG-58" edge="1">
          <mxGeometry relative="1" as="geometry" />
        </mxCell>
        <mxCell id="xMfNHaJi8qfaiqYtk1ZG-60" value="&lt;font color=&quot;#000000&quot;&gt;N&lt;/font&gt;" style="edgeLabel;html=1;align=center;verticalAlign=middle;resizable=0;points=[];fontColor=#FF0000;" parent="xMfNHaJi8qfaiqYtk1ZG-59" vertex="1" connectable="0">
          <mxGeometry x="-0.3867" relative="1" as="geometry">
            <mxPoint as="offset" />
          </mxGeometry>
        </mxCell>
        <mxCell id="xMfNHaJi8qfaiqYtk1ZG-62" value="&lt;font color=&quot;#000000&quot;&gt;Y&lt;/font&gt;" style="edgeStyle=orthogonalEdgeStyle;rounded=0;orthogonalLoop=1;jettySize=auto;html=1;fontColor=#FF0000;" parent="WIyWlLk6GJQsqaUBKTNV-1" source="xMfNHaJi8qfaiqYtk1ZG-55" target="xMfNHaJi8qfaiqYtk1ZG-61" edge="1">
          <mxGeometry relative="1" as="geometry" />
        </mxCell>
        <mxCell id="xMfNHaJi8qfaiqYtk1ZG-55" value="운전면허증이면서&amp;nbsp;&lt;br&gt;KCB 점검 또는 모름" style="rhombus;whiteSpace=wrap;html=1;" parent="WIyWlLk6GJQsqaUBKTNV-1" vertex="1">
          <mxGeometry x="85" y="1110" width="130" height="120" as="geometry" />
        </mxCell>
        <mxCell id="xMfNHaJi8qfaiqYtk1ZG-58" value="다음 인증 ㄱㄱ" style="whiteSpace=wrap;html=1;fillColor=#dae8fc;strokeColor=#6c8ebf;" parent="WIyWlLk6GJQsqaUBKTNV-1" vertex="1">
          <mxGeometry x="-110" y="1150" width="120" height="40" as="geometry" />
        </mxCell>
        <mxCell id="xMfNHaJi8qfaiqYtk1ZG-61" value="금결원 결과 대기&lt;br&gt;(금결원 성공이 나와야만 통과)" style="whiteSpace=wrap;html=1;fillColor=#f8cecc;strokeColor=#b85450;" parent="WIyWlLk6GJQsqaUBKTNV-1" vertex="1">
          <mxGeometry x="70" y="1290" width="160" height="40" as="geometry" />
        </mxCell>
        <mxCell id="xMfNHaJi8qfaiqYtk1ZG-65" value="&lt;font color=&quot;#000000&quot;&gt;재촬영 안내&lt;/font&gt;" style="rounded=0;whiteSpace=wrap;html=1;fillColor=#f8cecc;strokeColor=#b85450;" parent="WIyWlLk6GJQsqaUBKTNV-1" vertex="1">
          <mxGeometry x="190" y="1075" width="100" height="45" as="geometry" />
        </mxCell>
        <mxCell id="xMfNHaJi8qfaiqYtk1ZG-71" value="다음 인증 ㄱㄱ" style="whiteSpace=wrap;html=1;fillColor=#dae8fc;strokeColor=#6c8ebf;" parent="WIyWlLk6GJQsqaUBKTNV-1" vertex="1">
          <mxGeometry x="280" y="994.9999999999999" width="120" height="40" as="geometry" />
        </mxCell>
        <mxCell id="xMfNHaJi8qfaiqYtk1ZG-105" value="(애초에 못받게 배너로 안내)" style="text;html=1;strokeColor=none;fillColor=none;align=center;verticalAlign=middle;whiteSpace=wrap;rounded=0;fontColor=#FF0000;fontStyle=1" parent="WIyWlLk6GJQsqaUBKTNV-1" vertex="1">
          <mxGeometry x="-130" y="1075" width="160" height="20" as="geometry" />
        </mxCell>
        <mxCell id="xMfNHaJi8qfaiqYtk1ZG-106" value="금결원 점검중일 때에는 사전 안내" style="text;html=1;strokeColor=none;fillColor=none;align=center;verticalAlign=middle;whiteSpace=wrap;rounded=0;fontColor=#FF0000;fontStyle=1" parent="WIyWlLk6GJQsqaUBKTNV-1" vertex="1">
          <mxGeometry x="242" y="920" width="176" height="20" as="geometry" />
        </mxCell>
        <mxCell id="237TbWZ7jCMliAY4gID8-8" value="텍스트 불일치" style="rounded=0;whiteSpace=wrap;html=1;" vertex="1" parent="WIyWlLk6GJQsqaUBKTNV-1">
          <mxGeometry x="660" y="956.25" width="120" height="20" as="geometry" />
        </mxCell>
        <mxCell id="237TbWZ7jCMliAY4gID8-11" value="" style="edgeStyle=orthogonalEdgeStyle;rounded=0;orthogonalLoop=1;jettySize=auto;html=1;fontColor=#000000;entryX=0;entryY=0.5;entryDx=0;entryDy=0;endArrow=none;exitX=1;exitY=0.5;exitDx=0;exitDy=0;" edge="1" parent="WIyWlLk6GJQsqaUBKTNV-1" source="xMfNHaJi8qfaiqYtk1ZG-46" target="237TbWZ7jCMliAY4gID8-8">
          <mxGeometry relative="1" as="geometry">
            <mxPoint x="754.62" y="911.5" as="targetPoint" />
            <mxPoint x="710" y="1020" as="sourcePoint" />
          </mxGeometry>
        </mxCell>
        <mxCell id="237TbWZ7jCMliAY4gID8-44" style="edgeStyle=orthogonalEdgeStyle;rounded=0;orthogonalLoop=1;jettySize=auto;html=1;entryX=0;entryY=0.5;entryDx=0;entryDy=0;" edge="1" parent="WIyWlLk6GJQsqaUBKTNV-1" source="237TbWZ7jCMliAY4gID8-16" target="237TbWZ7jCMliAY4gID8-40">
          <mxGeometry relative="1" as="geometry" />
        </mxCell>
        <mxCell id="237TbWZ7jCMliAY4gID8-16" value="이미지 불일치" style="rounded=0;whiteSpace=wrap;html=1;" vertex="1" parent="WIyWlLk6GJQsqaUBKTNV-1">
          <mxGeometry x="660" y="1086" width="120" height="20" as="geometry" />
        </mxCell>
        <mxCell id="237TbWZ7jCMliAY4gID8-17" value="" style="edgeStyle=orthogonalEdgeStyle;rounded=0;orthogonalLoop=1;jettySize=auto;html=1;entryX=0;entryY=0.5;entryDx=0;entryDy=0;endArrow=none;" edge="1" parent="WIyWlLk6GJQsqaUBKTNV-1" target="237TbWZ7jCMliAY4gID8-16">
          <mxGeometry relative="1" as="geometry">
            <mxPoint x="525" y="1015" as="sourcePoint" />
            <mxPoint x="994.62" y="1098.75" as="targetPoint" />
            <Array as="points">
              <mxPoint x="590" y="1015" />
              <mxPoint x="590" y="1096" />
            </Array>
          </mxGeometry>
        </mxCell>
        <mxCell id="237TbWZ7jCMliAY4gID8-39" value="불일치" style="edgeLabel;html=1;align=center;verticalAlign=middle;resizable=0;points=[];" vertex="1" connectable="0" parent="237TbWZ7jCMliAY4gID8-17">
          <mxGeometry x="-0.8436" relative="1" as="geometry">
            <mxPoint x="7" as="offset" />
          </mxGeometry>
        </mxCell>
        <mxCell id="237TbWZ7jCMliAY4gID8-20" value="&lt;font color=&quot;#000000&quot;&gt;배치 등록 및 재시도&lt;/font&gt;" style="rounded=0;whiteSpace=wrap;html=1;fillColor=#f8cecc;strokeColor=#b85450;" vertex="1" parent="WIyWlLk6GJQsqaUBKTNV-1">
          <mxGeometry x="425.38" y="1136" width="120" height="30" as="geometry" />
        </mxCell>
        <mxCell id="237TbWZ7jCMliAY4gID8-47" value="" style="edgeStyle=orthogonalEdgeStyle;rounded=0;orthogonalLoop=1;jettySize=auto;html=1;entryX=0;entryY=0.5;entryDx=0;entryDy=0;" edge="1" parent="WIyWlLk6GJQsqaUBKTNV-1" source="237TbWZ7jCMliAY4gID8-40" target="237TbWZ7jCMliAY4gID8-48">
          <mxGeometry relative="1" as="geometry">
            <mxPoint x="1120" y="1096" as="targetPoint" />
          </mxGeometry>
        </mxCell>
        <mxCell id="237TbWZ7jCMliAY4gID8-40" value="DIG&lt;br&gt;(수기검증)" style="shape=process;whiteSpace=wrap;html=1;backgroundOutline=1;fillColor=#ffe6cc;strokeColor=#d79b00;" vertex="1" parent="WIyWlLk6GJQsqaUBKTNV-1">
          <mxGeometry x="855" y="1076" width="150" height="40" as="geometry" />
        </mxCell>
        <mxCell id="237TbWZ7jCMliAY4gID8-45" value="지급정지&lt;br&gt;재촬영 PUSH 및 BANNER" style="whiteSpace=wrap;html=1;fillColor=#f8cecc;strokeColor=#b85450;" vertex="1" parent="WIyWlLk6GJQsqaUBKTNV-1">
          <mxGeometry x="1040" y="1210" width="150" height="40.25" as="geometry" />
        </mxCell>
        <mxCell id="237TbWZ7jCMliAY4gID8-49" style="edgeStyle=orthogonalEdgeStyle;rounded=0;orthogonalLoop=1;jettySize=auto;html=1;entryX=0.5;entryY=0;entryDx=0;entryDy=0;" edge="1" parent="WIyWlLk6GJQsqaUBKTNV-1" source="237TbWZ7jCMliAY4gID8-48" target="237TbWZ7jCMliAY4gID8-45">
          <mxGeometry relative="1" as="geometry" />
        </mxCell>
        <mxCell id="237TbWZ7jCMliAY4gID8-64" value="불일치" style="edgeLabel;html=1;align=center;verticalAlign=middle;resizable=0;points=[];" vertex="1" connectable="0" parent="237TbWZ7jCMliAY4gID8-49">
          <mxGeometry x="-0.2162" y="-1" relative="1" as="geometry">
            <mxPoint as="offset" />
          </mxGeometry>
        </mxCell>
        <mxCell id="237TbWZ7jCMliAY4gID8-48" value="&lt;span&gt;수기 검증 결과&lt;/span&gt;" style="rhombus;whiteSpace=wrap;html=1;" vertex="1" parent="WIyWlLk6GJQsqaUBKTNV-1">
          <mxGeometry x="1075" y="1056" width="80" height="80" as="geometry" />
        </mxCell>
        <mxCell id="237TbWZ7jCMliAY4gID8-65" value="지급정지&lt;br&gt;재촬영 PUSH 및 BANNER" style="whiteSpace=wrap;html=1;fillColor=#f8cecc;strokeColor=#b85450;" vertex="1" parent="WIyWlLk6GJQsqaUBKTNV-1">
          <mxGeometry x="855" y="946.13" width="150" height="40.25" as="geometry" />
        </mxCell>
      </root>
    </mxGraphModel>
  </diagram>
</mxfile>
